<svg width="24" height="24" viewBox="0 0 24 24" fill="none" xmlns="http://www.w3.org/2000/svg">
<path d="M10.4727 3.31543C11.2762 2.62826 12.4368 2.56539 13.3066 3.13867L13.4766 3.26172L20.125 8.53906V8.54004C20.5217 8.86947 20.75 9.35589 20.75 9.86621V18.5771C20.75 19.2854 20.4657 19.966 19.959 20.4678C19.4521 20.9696 18.764 21.2518 18.0459 21.25H16.0879C15.8163 21.2478 15.6065 21.0301 15.6064 20.7734V17.7148C15.6062 16.5151 14.6278 15.5518 13.4326 15.5518H10.5537C9.36378 15.5592 8.39376 16.5205 8.39355 17.7148V20.0322H8.35742L8.3584 20.7822C8.35838 20.9051 8.30829 21.0241 8.21875 21.1123C8.12906 21.2006 8.00656 21.2509 7.87793 21.25H5.95605C4.45642 21.2499 3.25 20.0441 3.25 18.5684V9.88379C3.2622 9.36525 3.50917 8.87747 3.9248 8.55762L3.92969 8.55371L3.93555 8.54883L10.4541 3.33105L10.4639 3.32324L10.4727 3.31543Z" stroke="currentColor" stroke-width="1.5"/>
</svg>
