<?xml version="1.0" encoding="UTF-8"?>
<svg version="1.1" xmlns="http://www.w3.org/2000/svg" width="512" height="512">
<path d="M0 0 C1.54984389 -0.00489117 3.09968413 -0.01108202 4.64951819 -0.01845789 C8.90144331 -0.03485205 13.15318294 -0.03254055 17.4051286 -0.02708292 C21.99353821 -0.02441207 26.58189846 -0.0389456 31.17028809 -0.05117798 C40.1570617 -0.0722321 49.1437708 -0.07677283 58.13056616 -0.07499009 C65.43581395 -0.07368241 72.74104162 -0.07748693 80.04628563 -0.08491516 C82.15065803 -0.08701436 84.25503043 -0.08911196 86.35940284 -0.09120798 C87.40681664 -0.09225151 88.45423044 -0.09329504 89.53338405 -0.09437019 C109.34291017 -0.11327262 129.15239925 -0.1122224 148.96193065 -0.10540086 C167.08046179 -0.09982589 185.1988515 -0.12064888 203.31734959 -0.15376133 C221.92441586 -0.18750253 240.5314144 -0.20266609 259.13851184 -0.1980443 C269.58375512 -0.19579999 280.02886771 -0.20103724 290.47408485 -0.22593689 C299.36695981 -0.24695557 308.25963241 -0.25053637 317.15251569 -0.2316373 C321.68851058 -0.22248284 326.22412824 -0.22132749 330.76009369 -0.24199295 C334.91600798 -0.26071727 339.07123647 -0.2561835 343.22712477 -0.23344713 C344.72708455 -0.22926501 346.22709705 -0.23344844 347.72700105 -0.24704307 C357.27708042 -0.32767747 365.53048774 0.39327153 372.85371333 7.1497941 C377.90786048 12.4829543 380.31534581 18.28209597 380.18695068 25.57078552 C380.16197006 26.31566727 380.13698944 27.06054901 380.11125183 27.82800293 C380.09939569 29.46405682 380.08970234 31.10012754 380.08195496 32.73620605 C380.05542461 35.27119254 380.01452206 37.80266369 379.93424988 40.33654785 C379.56364622 53.30258176 381.94721004 61.03250458 389.5894928 71.47445679 C391.7921833 74.58039998 393.68152285 77.85744461 395.59172058 81.14831543 C396.35254589 82.43683309 397.11410561 83.72491738 397.87638855 85.01257324 C398.6513866 86.32729547 399.42628705 87.64207525 400.20109558 88.95690918 C407.07514359 100.60651177 407.07514359 100.60651177 414.11515808 112.15612793 C414.74647644 113.17698486 415.3777948 114.1978418 416.02824402 115.24963379 C417.17758224 117.10021816 418.33382862 118.94654143 419.49894714 120.78723145 C425.27927501 130.10247979 429.88972474 139.10940941 429.51359558 150.26940918 C429.4969989 151.12583008 429.48040222 151.98225098 429.46330261 152.86462402 C428.85196327 169.78256914 421.86983989 182.61448552 409.95109558 194.39440918 C397.68461689 205.63321497 382.25642814 210.13257686 365.78703308 209.74206543 C348.40617346 208.16681441 335.83472888 200.53478765 323.95109558 188.39440918 C322.91849697 187.08615925 321.90211649 185.7631082 320.95109558 184.39440918 C320.39164246 185.08405762 319.83218933 185.77370605 319.25578308 186.48425293 C308.52915645 199.05613526 295.58620728 207.12884542 278.95109558 209.39440918 C260.65845048 210.48400545 245.3772409 206.34270203 231.22062683 194.49597168 C227.83988253 191.36543737 224.83420118 187.98397111 221.95109558 184.39440918 C221.53859558 184.89069824 221.12609558 185.3869873 220.70109558 185.89831543 C209.16965142 199.46320622 195.25985014 208.21064458 177.17375183 209.70690918 C160.83272586 210.42381353 145.838503 205.71090862 133.51359558 194.76940918 C131.97760661 193.32704722 130.45568453 191.86949638 128.95109558 190.39440918 C128.19699402 189.6854248 127.44289246 188.97644043 126.66593933 188.24597168 C124.95109558 186.39440918 124.95109558 186.39440918 124.95109558 184.39440918 C124.02297058 185.35347168 124.02297058 185.35347168 123.07609558 186.33190918 C109.13537017 200.15482564 95.11580839 209.38480859 74.88859558 209.64440918 C58.18194636 209.48093903 44.21021203 203.74622441 31.95109558 192.39440918 C29.50014074 189.81584628 27.17861496 187.16774457 24.95109558 184.39440918 C24.34974792 185.12144043 24.34974792 185.12144043 23.73625183 185.86315918 C12.92032235 198.61663611 0.80252408 206.82505106 -16.04890442 209.39440918 C-18.69032177 209.46921332 -21.29335644 209.5021702 -23.93171692 209.46472168 C-24.61951233 209.459646 -25.30730774 209.45457031 -26.01594543 209.44934082 C-27.69364706 209.43622239 -29.37129109 209.41605063 -31.04890442 209.39440918 C-31.09557497 237.76625916 -31.13086897 266.13810341 -31.15252876 294.50998402 C-31.162852 307.68281651 -31.1769323 320.85562518 -31.19978333 334.02844238 C-31.21968518 345.5066149 -31.23261323 356.98477018 -31.23708141 368.46295947 C-31.23969423 374.54349729 -31.24585716 380.62398578 -31.26036453 386.70450783 C-31.27389786 392.42288083 -31.2781357 398.14118396 -31.27511978 403.85957146 C-31.27567185 405.96270247 -31.2796745 408.06583573 -31.28731537 410.16895294 C-31.29721013 413.03189647 -31.29489337 415.89457337 -31.28941345 418.75752258 C-31.29815198 420.01675489 -31.29815198 420.01675489 -31.30706704 421.30142623 C-31.28683518 425.18996084 -31.25646668 427.08306579 -29.04890442 430.39440918 C-26.95643017 430.86958784 -26.95643017 430.86958784 -24.50740051 430.82678223 C-23.09616409 430.85647346 -23.09616409 430.85647346 -21.65641785 430.88676453 C-20.63867279 430.89315445 -19.62092773 430.89954437 -18.57234192 430.90612793 C-17.5319577 430.92407913 -16.49157349 430.94203033 -15.41966248 430.96052551 C-12.0877847 431.014826 -8.75605176 431.04858771 -5.42390442 431.08190918 C-3.16867584 431.11506479 -0.91346643 431.14955279 1.34172058 431.1854248 C6.87804904 431.27056352 12.41439579 431.3388294 17.95109558 431.39440918 C17.94740841 430.6502604 17.94372124 429.90611162 17.93992233 429.13941288 C17.8514832 411.01052088 17.78534316 392.8816721 17.74384689 374.75261021 C17.72324485 365.98542584 17.69516949 357.21838572 17.64933777 348.45129395 C17.60939763 340.80753398 17.58364563 333.16387851 17.5747416 325.52001709 C17.56953896 321.47474124 17.55736046 317.42976425 17.52817535 313.38458443 C17.50089252 309.57194205 17.49267631 305.75971979 17.49866486 301.94698906 C17.49757033 300.55265897 17.48969304 299.15831387 17.47427368 297.7640686 C17.37465511 288.28624002 18.07679788 280.9823933 24.32609558 273.58190918 C31.66739636 267.46415853 38.10571735 265.0849369 47.67131042 265.11975098 C48.40890091 265.11464005 49.14649139 265.10952911 49.90643311 265.10426331 C52.32505086 265.09045584 54.74338079 265.09131745 57.16203308 265.09362793 C58.85682784 265.08973593 60.55162163 265.08540023 62.24641418 265.0806427 C65.79188708 265.07319934 69.33726036 265.07345791 72.88273621 265.07873535 C77.40729615 265.08452526 81.93144611 265.06760148 86.45593834 265.04439068 C89.95456798 265.02959798 93.45310015 265.02878918 96.95175552 265.03190041 C98.61897722 265.0313899 100.28620476 265.02620346 101.95339584 265.01608849 C113.26230903 264.95589398 124.29366748 264.99541177 132.95109558 273.39440918 C137.48902905 279.29607396 139.07773707 283.98372041 139.0713501 291.41815186 C139.07341209 293.26909958 139.07341209 293.26909958 139.07551575 295.15744019 C139.07197686 296.52191186 139.06834205 297.8863833 139.06462097 299.25085449 C139.06433885 300.68984983 139.06449732 302.12884532 139.06506348 303.56784058 C139.06535049 307.47245047 139.05946929 311.37702967 139.05248952 315.28163242 C139.04623998 319.36290392 139.04565091 323.44417612 139.04446411 327.52545166 C139.04135553 335.2530893 139.03314849 342.98071281 139.02311462 350.70834422 C139.01193883 359.50633294 139.00643934 368.30432233 139.00141919 377.10231638 C138.9909655 395.19968866 138.97337518 413.29704779 138.95109558 431.39440918 C168.98211125 431.33534917 199.01305977 431.26106691 229.04398071 431.1654229 C232.58642359 431.15415423 236.12886688 431.14301586 239.67131042 431.13195801 C240.37657089 431.12975432 241.08183136 431.12755064 241.80846335 431.12528018 C253.23991949 431.08987201 264.67137557 431.06502778 276.10286628 431.04406216 C287.8256686 431.02232807 299.54839954 430.98930058 311.27114117 430.94570762 C317.85857217 430.92170483 324.4459239 430.9030224 331.03339767 430.89679527 C337.22707096 430.89077622 343.42054122 430.87089242 349.61413956 430.84013367 C351.8934412 430.83130217 354.17276933 430.82764133 356.4520874 430.82940102 C359.55200142 430.83103935 362.6512858 430.81447847 365.75111389 430.7931366 C367.11977106 430.80040796 367.11977106 430.80040796 368.51607788 430.80782622 C371.26243916 430.81226866 371.26243916 430.81226866 374.95109558 430.39440918 C377.44468741 426.65402144 377.22597347 423.76498648 377.19592285 419.43655396 C377.19818742 418.61672449 377.200452 417.79689502 377.20278519 416.95222223 C377.20809717 414.19540576 377.19923713 411.43881227 377.19059753 408.68200684 C377.19170999 406.7094058 377.19376712 404.7368051 377.19670105 402.76420593 C377.2014298 398.51134019 377.20029634 394.25852962 377.19492531 390.00566483 C377.18733264 383.28302256 377.19795165 376.56048725 377.21212769 369.83786011 C377.24991661 350.71966143 377.26804922 331.6015107 377.2565155 312.48327637 C377.25030461 301.92826767 377.2618522 291.37343099 377.29296082 280.81846464 C377.31164978 274.13355868 377.30826335 267.44913863 377.28879321 260.7642405 C377.28192194 256.60664129 377.29584818 252.44930682 377.31574249 248.29175758 C377.32079909 246.36201465 377.31728094 244.43222756 377.3046093 242.50251961 C377.28854855 239.86976824 377.30310136 237.23889772 377.32531738 234.60623169 C377.31327988 233.84076165 377.30124239 233.07529161 377.28884012 232.2866255 C377.35773382 228.28873772 377.79879912 226.5805593 380.36520672 223.44367027 C384.13641121 220.45507213 386.12951017 219.9307952 390.95109558 220.39440918 C396.53004295 223.55230392 396.53004295 223.55230392 397.95109558 226.39440918 C398.05771922 229.07992083 398.10330919 231.74000146 398.10499573 234.42614746 C398.10937798 235.26609599 398.11376024 236.10604452 398.11827528 236.97144604 C398.13169224 239.80254012 398.13784873 242.63360306 398.14396667 245.46472168 C398.15186559 247.48817588 398.16013441 249.51162867 398.16874695 251.53507996 C398.19499934 258.19650929 398.21028139 264.85794499 398.22453308 271.51940918 C398.22989212 273.81175745 398.23526963 276.10410567 398.24066544 278.39645386 C398.26230208 287.93392898 398.28103761 297.4714024 398.29228783 307.00889587 C398.30851715 320.67828341 398.34166151 334.34738622 398.39868867 348.01666641 C398.4374107 357.62612537 398.45692343 367.23550826 398.46220839 376.84504318 C398.46585975 382.58438581 398.47785787 388.32342497 398.51031113 394.06268311 C398.5404299 399.46686897 398.54668976 404.87056839 398.53492737 410.27482033 C398.53470693 412.25408556 398.54298722 414.23337361 398.56058121 416.21256065 C398.73679655 437.18415548 398.73679655 437.18415548 391.19556236 445.27876282 C385.5409521 450.70180542 379.42405779 452.76773841 371.68333721 452.77751923 C370.98264631 452.78247874 370.2819554 452.78743826 369.56003144 452.79254806 C367.21833184 452.80547414 364.87720525 452.79712928 362.53549194 452.78881836 C360.83715563 452.79370869 359.13882265 452.79989916 357.44049531 452.80727625 C352.77811843 452.82368094 348.11591059 452.82135675 343.45351493 452.81590128 C338.4233854 452.81323173 333.39330099 452.8277615 328.3631897 452.83999634 C318.5101325 452.86105591 308.65713413 452.86559088 298.80405708 452.86380845 C290.79514855 452.86250105 282.78625837 452.86630384 274.77735329 452.87373352 C272.47076951 452.87583271 270.16418572 452.87793031 267.85760194 452.88002634 C266.13554161 452.88159163 266.13554161 452.88159163 264.37869219 452.88318855 C242.66350256 452.90209316 220.9483467 452.90104008 199.23315225 452.89421922 C179.36866409 452.88864399 159.5043049 452.90946798 139.63984688 452.94257969 C119.24284204 452.97631518 98.84589898 452.99148516 78.44886571 452.98686266 C66.99758264 452.98461778 55.54641877 452.98986387 44.09515953 453.01475525 C34.34590169 453.03576653 24.59682841 453.03936202 14.84756299 453.02045566 C9.87412245 453.01129672 4.90102605 453.01015979 -0.0723877 453.03081131 C-4.6279727 453.04951849 -9.18293166 453.04502067 -13.73849281 453.02226549 C-15.38380818 453.01807909 -17.02917153 453.02228115 -18.67443619 453.03586143 C-28.56869787 453.11194859 -37.28588746 452.72642025 -44.9461835 445.63902426 C-51.13557041 439.13059144 -52.4962312 432.50684178 -52.38034058 423.83007812 C-52.37972733 422.41356421 -52.37972733 422.41356421 -52.37910169 420.96843386 C-52.37434991 417.81398808 -52.3483312 414.66007619 -52.32258606 411.5057373 C-52.31522909 409.24023347 -52.30933538 406.97472448 -52.30479431 404.70921326 C-52.29280976 399.83540965 -52.27227068 394.96174259 -52.24563789 390.08799744 C-52.20539831 382.38156387 -52.19535893 374.67527711 -52.19158936 366.96875 C-52.18987425 364.329277 -52.1880932 361.68980403 -52.18624783 359.05033112 C-52.18579313 358.3908079 -52.18533844 357.73128468 -52.18486996 357.0517759 C-52.17932647 349.55351064 -52.16779883 342.05525953 -52.15315247 334.55700684 C-52.15182347 333.87196951 -52.15049448 333.18693218 -52.14912521 332.48113614 C-52.12668123 321.37346376 -52.07768152 310.26602702 -52.02158839 299.15848094 C-51.96486081 287.74386025 -51.94708469 276.32972793 -51.96099752 264.91494894 C-51.96722601 258.50975717 -51.95467647 252.1057909 -51.89810371 245.70082092 C-51.84497052 239.67897054 -51.83792782 233.65884383 -51.8663063 227.63684273 C-51.86838474 225.42729517 -51.85331985 223.21765492 -51.81984901 221.00835991 C-51.14845315 209.67994084 -51.14845315 209.67994084 -55.20692253 199.62770081 C-57.76089871 197.83108938 -60.202402 196.65104835 -63.04890442 195.39440918 C-73.61265744 186.67454152 -81.03797178 173.99666106 -83.04890442 160.39440918 C-83.23893916 157.08109765 -83.2795704 153.77511088 -83.29890442 150.45690918 C-83.31952942 149.57583496 -83.34015442 148.69476074 -83.36140442 147.7869873 C-83.39746586 141.76923504 -82.81079262 137.33182165 -78.50819397 132.75578308 C-74.7478942 130.67421689 -71.19499811 131.00107453 -66.96589661 131.05383301 C-66.04847687 131.05339493 -65.13105713 131.05295685 -64.18583679 131.05250549 C-61.15560065 131.05459433 -58.12591882 131.0779301 -55.09577942 131.10144043 C-52.9939962 131.10703604 -50.89220906 131.1113063 -48.79042053 131.11430359 C-43.25997606 131.12575507 -37.72976815 131.15522505 -32.19941711 131.18841553 C-26.55552877 131.21910975 -20.91160218 131.23280755 -15.26765442 131.2479248 C-4.19463385 131.2800943 6.87821119 131.33129448 17.95109558 131.39440918 C18.11857803 130.81075592 18.28606049 130.22710266 18.45861816 129.62576294 C20.45275858 122.81480068 22.76065267 116.15004421 25.18156433 109.48034668 C25.5768483 108.38469391 25.97213226 107.28904114 26.37939453 106.16018677 C27.62994824 102.69568022 28.8842086 99.23252942 30.13859558 95.76940918 C30.99235751 93.4062169 31.84587555 91.04293649 32.69914246 88.67956543 C34.78030841 82.91682488 36.86451098 77.15518979 38.95109558 71.39440918 C7.23854154 66.83463899 7.23854154 66.83463899 -22.23982239 73.85241699 C-28.42939196 79.63823362 -31.27046645 87.92048572 -33.79988098 95.81140137 C-35.60334225 100.98489582 -38.32500858 105.32585795 -41.29890442 109.89440918 C-41.71962219 110.60967773 -42.14033997 111.32494629 -42.57380676 112.06188965 C-45.17636674 116.45485558 -47.87653774 120.57728443 -53.11140442 121.92565918 C-57.98267044 121.84709037 -60.51398427 121.03644812 -64.04890442 117.39440918 C-65.65863391 114.1749502 -65.46958482 110.88898782 -65.04890442 107.39440918 C-63.92643394 104.76370962 -62.8421101 102.6088449 -61.36140442 100.20690918 C-60.96638733 99.53619385 -60.57137024 98.86547852 -60.16438293 98.17443848 C-58.81427567 95.90056006 -57.43481681 93.64663238 -56.04890442 91.39440918 C-55.5297345 90.54491699 -55.01056458 89.6954248 -54.47566223 88.82019043 C-51.79007081 84.43228315 -49.08527631 80.05699168 -46.35749817 75.69519043 C-45.57668884 74.41213013 -45.57668884 74.41213013 -44.78010559 73.10314941 C-43.04890442 70.39440918 -43.04890442 70.39440918 -40.88996887 67.53137207 C-33.99020834 57.8665017 -34.04772783 49.73257024 -34.36140442 38.20690918 C-34.82892672 15.61144776 -34.82892672 15.61144776 -27.29231262 7.50500488 C-19.20240062 -0.23343711 -10.6683437 -0.0415581 0 0 Z M-13.04890442 23.39440918 C-16.92762127 31.15184289 -14.04890442 40.72133463 -14.04890442 49.39440918 C109.37109558 49.39440918 232.79109558 49.39440918 359.95109558 49.39440918 C362.35109558 27.76107585 362.35109558 27.76107585 356.95109558 21.39440918 C353.70566882 20.31260026 351.35737248 20.26686592 347.9424305 20.26298141 C346.67855165 20.25914027 345.4146728 20.25529912 344.11249459 20.25134158 C342.70201558 20.25212187 341.29153663 20.25300066 339.88105774 20.25396729 C338.38885352 20.25138442 336.89665 20.24837148 335.40444744 20.24496388 C331.29350537 20.23688154 327.18258074 20.23510363 323.07163167 20.23436642 C318.64209476 20.23251803 314.21256694 20.22497184 309.78303528 20.2182312 C300.09310484 20.20463913 290.40317853 20.19862195 280.71324015 20.19422054 C274.66591587 20.1914599 268.61859319 20.1872229 262.57126999 20.18271637 C245.8364961 20.17052314 229.1017235 20.16022356 212.36694527 20.15684128 C211.29553317 20.15662171 210.22412107 20.15640215 209.12024193 20.15617593 C207.50922757 20.15584851 207.50922757 20.15584851 205.86566746 20.15551448 C203.68922814 20.15507101 201.51278881 20.15462445 199.33634949 20.1541748 C198.256755 20.15395337 197.17716051 20.15373195 196.06485103 20.15350381 C178.56351324 20.14955406 161.06221705 20.13209489 143.56089534 20.10881528 C125.6037475 20.0851216 107.64662055 20.07264035 89.68945682 20.07147336 C79.60260623 20.07055554 69.51580984 20.06477636 59.42897415 20.04665375 C50.84149565 20.03127958 42.2540881 20.02611643 33.66659845 20.03439185 C29.28322793 20.03830775 24.90000041 20.03732312 20.51664734 20.0233345 C16.50593819 20.01065183 12.49548035 20.01174314 8.48477183 20.02392522 C7.03188611 20.02589202 5.57898292 20.02275866 4.12612177 20.01408085 C2.15459105 20.00304825 0.18297796 20.01223507 -1.78855705 20.02247238 C-3.43277494 20.02157675 -3.43277494 20.02157675 -5.11020935 20.02066302 C-8.46034736 20.4467369 -10.34636002 21.40069383 -13.04890442 23.39440918 Z M61.95109558 70.39440918 C54.24504335 90.93077394 54.24504335 90.93077394 46.71794128 111.53088379 C45.85854659 113.91528031 44.99571922 116.29841867 44.13273621 118.68151855 C43.58110598 120.2094419 43.0296653 121.7374337 42.47843933 123.26550293 C42.09425087 124.32601112 42.09425087 124.32601112 41.70230103 125.40794373 C40.47625212 128.32946649 40.47625212 128.32946649 39.95109558 131.39440918 C64.70109558 131.39440918 89.45109558 131.39440918 114.95109558 131.39440918 C116.10609558 121.88628418 117.26109558 112.37815918 118.45109558 102.58190918 C118.8165448 99.58121338 119.18199402 96.58051758 119.55851746 93.4888916 C119.84576853 91.11757087 120.13288704 88.74623408 120.41984558 86.37487793 C120.57098816 85.13790161 120.72213074 83.90092529 120.87785339 82.62646484 C121.01997253 81.4492688 121.16209167 80.27207275 121.30851746 79.0592041 C121.4328717 78.03550217 121.55722595 77.01180023 121.68534851 75.95707703 C122.00266872 73.32647773 122.00266872 73.32647773 121.95109558 70.39440918 C102.15109558 70.39440918 82.35109558 70.39440918 61.95109558 70.39440918 Z M142.95109558 70.39440918 C141.69106861 77.32455755 140.51291279 84.14687259 139.66203308 91.12097168 C139.55388275 91.99410004 139.44573242 92.86722839 139.33430481 93.76681519 C139.10921068 95.59332306 138.88578372 97.42003712 138.66398621 99.24694824 C138.32591612 102.02088169 137.97859857 104.79355789 137.63078308 107.56628418 C137.41147056 109.35527781 137.19270193 111.14433822 136.97453308 112.93347168 C136.87143829 113.74933746 136.76834351 114.56520325 136.66212463 115.40579224 C136.56847626 116.19045868 136.47482788 116.97512512 136.37834167 117.78356934 C136.29554962 118.45876617 136.21275757 119.13396301 136.12745667 119.82962036 C135.86297609 123.67591575 135.95109558 127.53903135 135.95109558 131.39440918 C160.70109558 131.39440918 185.45109558 131.39440918 210.95109558 131.39440918 C209.81672058 121.70065918 208.68234558 112.00690918 207.51359558 102.01940918 C207.15725037 98.95740234 206.80090515 95.89539551 206.4337616 92.74060059 C206.14947335 90.32568914 205.8649061 87.91081052 205.58000183 85.49597168 C205.36096191 83.60044556 205.36096191 83.60044556 205.13749695 81.66662598 C204.99549866 80.46900635 204.85350037 79.27138672 204.7071991 78.03747559 C204.58506546 76.99378815 204.46293182 75.95010071 204.33709717 74.87478638 C204.08089012 72.40036704 204.08089012 72.40036704 202.95109558 70.39440918 C183.15109558 70.39440918 163.35109558 70.39440918 142.95109558 70.39440918 Z M223.95109558 70.39440918 C224.54922058 75.81878418 225.14734558 81.24315918 225.76359558 86.83190918 C225.94511169 88.48376221 226.12662781 90.13561523 226.31364441 91.83752441 C227.77482023 105.03521695 229.3688022 118.20863103 230.95109558 131.39440918 C255.70109558 131.39440918 280.45109558 131.39440918 305.95109558 131.39440918 C301.6212921 118.40499873 297.26107282 105.50972284 292.49650574 92.68469238 C291.55197924 90.14198696 290.61252864 87.59744558 289.67375183 85.0526123 C289.07116838 83.42295103 288.46831498 81.79338955 287.86515808 80.16394043 C287.44648972 79.03143608 287.44648972 79.03143608 287.0193634 77.87605286 C285.61957025 74.07823555 285.61957025 74.07823555 283.95109558 70.39440918 C264.15109558 70.39440918 244.35109558 70.39440918 223.95109558 70.39440918 Z M305.95109558 70.39440918 C306.23015747 71.21517944 306.50921936 72.03594971 306.79673767 72.8815918 C307.16961914 73.978302 307.54250061 75.07501221 307.92668152 76.20495605 C308.31690491 77.35214111 308.7071283 78.49932617 309.10917664 79.68127441 C309.89256851 81.98652214 310.67321357 84.292704 311.45207214 86.5994873 C316.61490116 101.66769266 322.35068284 116.45997521 327.95109558 131.39440918 C352.04109558 131.39440918 376.13109558 131.39440918 400.95109558 131.39440918 C394.84023762 120.66409522 394.84023762 120.66409522 388.58390808 110.02722168 C388.22227066 109.42358292 387.86063324 108.81994415 387.48803711 108.19801331 C386.35247068 106.3040895 385.21452863 104.41161102 384.07609558 102.51940918 C383.68568085 101.86953033 383.29526611 101.21965149 382.89302063 100.55007935 C378.27429476 92.8634605 373.6390801 85.18809293 368.88859558 77.58190918 C368.48979187 76.94333984 368.09098816 76.30477051 367.68009949 75.64685059 C366.0083864 72.87327775 366.0083864 72.87327775 363.95109558 70.39440918 C362.14054533 70.30064865 360.32632357 70.27696808 358.51335144 70.28088379 C357.35222336 70.28095932 356.19109528 70.28103485 354.99478149 70.28111267 C353.73126358 70.28627396 352.46774567 70.29143524 351.16593933 70.29675293 C349.23700584 70.29887535 349.23700584 70.29887535 347.269104 70.30104065 C343.84466116 70.304865 340.42026049 70.31469456 336.99583435 70.32574463 C333.50371369 70.33596054 330.01158624 70.34053865 326.51945496 70.34558105 C319.6633178 70.35631691 312.80720871 70.37339234 305.95109558 70.39440918 Z M-63.04890442 151.39440918 C-60.74264163 164.0788545 -57.73763903 173.78431787 -46.92390442 181.51940918 C-37.06355673 187.68212648 -27.67886984 189.78853753 -16.04890442 188.39440918 C-5.1280188 185.48045387 3.82787024 179.30857941 9.73625183 169.65222168 C13.11599887 163.37089118 14.04086245 158.67627426 14.95109558 151.39440918 C-10.78890442 151.39440918 -36.52890442 151.39440918 -63.04890442 151.39440918 Z M35.95109558 151.39440918 C37.20670052 163.95045852 40.58481391 171.86032327 49.95109558 180.39440918 C59.97650209 187.73275532 69.65931334 189.40712038 81.95109558 188.39440918 C92.94503125 185.98477944 101.42441787 179.42242784 107.95109558 170.39440918 C111.728957 164.06362929 112.19093914 158.99597363 112.95109558 151.39440918 C87.54109558 151.39440918 62.13109558 151.39440918 35.95109558 151.39440918 Z M133.95109558 151.39440918 C136.25735837 164.0788545 139.26236097 173.78431787 150.07609558 181.51940918 C159.93644327 187.68212648 169.32113016 189.78853753 180.95109558 188.39440918 C192.72112524 185.25388179 201.33039986 178.65470521 207.50968933 168.24597168 C210.29320945 162.73927876 211.95109558 157.57182725 211.95109558 151.39440918 C186.21109558 151.39440918 160.47109558 151.39440918 133.95109558 151.39440918 Z M232.95109558 151.39440918 C234.11202377 163.00369104 236.91382704 171.60874001 245.59953308 179.64050293 C256.1262545 187.49182838 266.15528213 189.29281133 278.95109558 188.39440918 C289.74856847 186.14550015 297.99694741 179.62926774 304.44328308 170.85925293 C308.33703829 164.49407279 309.95109558 158.83900185 309.95109558 151.39440918 C284.54109558 151.39440918 259.13109558 151.39440918 232.95109558 151.39440918 Z M330.95109558 151.39440918 C333.22664848 163.90995013 336.60468472 173.5228873 346.95109558 181.39440918 C357.62058597 187.67542023 367.69257116 190.60865356 380.10343933 187.64050293 C387.66189078 184.99660016 393.53900069 181.34771356 398.95109558 175.39440918 C399.44738464 174.85300293 399.94367371 174.31159668 400.45500183 173.75378418 C405.59607124 167.62057856 408.95109558 159.46597476 408.95109558 151.39440918 C383.21109558 151.39440918 357.47109558 151.39440918 330.95109558 151.39440918 Z M38.95109558 288.39440918 C37.89886704 291.5510948 37.82787408 293.75599329 37.83084106 297.07011414 C37.8294664 298.2522197 37.82809174 299.43432526 37.82667542 300.6522522 C37.83027069 301.95056976 37.83386597 303.24888733 37.83757019 304.58654785 C37.83785224 305.96628314 37.83769399 307.34601858 37.83712769 308.72575378 C37.83684039 312.47340361 37.84272621 316.22102153 37.84970164 319.96866393 C37.85594642 323.88444721 37.85653987 327.80023119 37.85772705 331.71601868 C37.86083704 339.13202939 37.86904597 346.54802538 37.87907654 353.96402961 C37.89233622 363.98463584 37.89774027 374.00524609 37.90357876 384.02585888 C37.91298607 399.81538667 37.93290721 415.60488341 37.95109558 431.39440918 C64.68109558 431.39440918 91.41109558 431.39440918 118.95109558 431.39440918 C119.00934649 406.6092593 119.00934649 406.6092593 119.04875183 381.82409668 C119.0606279 371.71958389 119.07460368 361.6151044 119.10197449 351.51062012 C119.12189731 344.15220546 119.13480939 336.79381777 119.13927257 329.43537688 C119.14188183 325.53847016 119.14802222 321.64164061 119.16255569 317.74475861 C119.17612212 314.07749096 119.18032014 310.41033234 119.17731094 306.74304199 C119.17812421 304.75423798 119.18889078 302.76544587 119.19993591 300.77667236 C119.19718658 299.59319214 119.19443726 298.40971191 119.19160461 297.19036865 C119.19436999 295.6472872 119.19436999 295.6472872 119.19719124 294.07303238 C118.9444746 291.32234328 118.45352425 289.69583383 116.95109558 287.39440918 C114.00123576 285.91947927 111.36313181 286.25892534 108.07048035 286.24914551 C107.36299652 286.2457869 106.6555127 286.24242828 105.92658997 286.2389679 C103.58187619 286.22944899 101.23723374 286.22751434 98.89250183 286.22644043 C97.26586884 286.22322859 95.63923614 286.21986458 94.01260376 286.21635437 C90.60041128 286.21036081 87.18824413 286.20851471 83.77604675 286.20910645 C79.39993753 286.2092081 75.02399043 286.19555336 70.64791965 286.17833424 C67.28765107 286.16722558 63.92742183 286.16518688 60.56713676 286.16571617 C58.95357135 286.16453444 57.34000498 286.16010186 55.7264576 286.1523838 C53.47122405 286.14260633 51.21634437 286.14545287 48.96110535 286.15148926 C47.67696243 286.15006424 46.39281952 286.14863922 45.06976318 286.14717102 C41.78588816 286.15267411 41.78588816 286.15267411 38.95109558 288.39440918 Z " fill="#00179C" transform="translate(83.04890441894531,29.6055908203125)"/>
<path d="M0 0 C1.98197028 -0.00202417 3.96393984 -0.00493846 5.94590759 -0.00869751 C10.08551168 -0.01310367 14.22492066 -0.00674433 18.36450195 0.00732422 C23.6523772 0.02442621 28.93979588 0.01455751 34.22765446 -0.00339317 C38.31562194 -0.01426768 42.40348234 -0.01076806 46.49145317 -0.0030098 C48.44056694 -0.00101851 50.38969065 -0.00342913 52.3387928 -0.01044846 C55.06865082 -0.01812483 57.79778347 -0.00637328 60.52758789 0.01025391 C61.71783569 0.00114487 61.71783569 0.00114487 62.93212891 -0.00814819 C71.32850917 0.08590569 79.51034243 2.43977951 85.65234375 8.3984375 C90.54196421 14.75747758 91.77143018 19.60901106 91.81347656 27.61035156 C91.81844147 28.32960312 91.82340637 29.04885468 91.82852173 29.78990173 C91.84310159 32.16463181 91.84993903 34.53929505 91.85546875 36.9140625 C91.86122447 38.57069906 91.86698215 40.22733562 91.8727417 41.88397217 C91.88324039 45.35738433 91.88909018 48.83077343 91.89257812 52.30419922 C91.89805474 56.74036035 91.92206961 61.1762133 91.95055008 65.61227798 C91.969238 69.03536855 91.97438536 72.45838587 91.975914 75.88152313 C91.97892813 77.51608715 91.98691452 79.15065026 92.00009918 80.78516388 C92.07018138 90.14265608 92.01752817 97.74492768 87.08984375 106.0234375 C79.26218263 113.65038936 71.61036626 115.54486347 60.98168945 115.55957031 C60.1192009 115.56453522 59.25671234 115.56950012 58.36808777 115.57461548 C55.52142531 115.58919105 52.67481861 115.59603215 49.828125 115.6015625 C47.84140523 115.60731864 45.85468546 115.61307631 43.8679657 115.61883545 C39.702746 115.62933297 35.53754552 115.63518351 31.37231445 115.63867188 C26.05417219 115.6441477 20.73628709 115.66816161 15.41822529 115.69664383 C11.31307755 115.71533735 7.20799087 115.72047942 3.10280418 115.72200775 C1.14333888 115.72502069 -0.81612571 115.73300294 -2.77554893 115.74619293 C-27.7349572 115.90218871 -27.7349572 115.90218871 -36.65625 107.359375 C-42.45250986 100.63946172 -43.46421452 93.37516403 -43.49291992 84.69384766 C-43.49929977 83.37873199 -43.50567963 82.06361633 -43.51225281 80.70864868 C-43.51378176 79.28493283 -43.51489557 77.86121648 -43.515625 76.4375 C-43.51884244 74.96308358 -43.52220687 73.48866747 -43.52571106 72.01425171 C-43.53168422 68.92941549 -43.53355281 65.84460721 -43.53295898 62.75976562 C-43.53285743 58.82368969 -43.54651063 54.88779441 -43.56373119 50.95176125 C-43.57489613 47.90783885 -43.57687682 44.86395953 -43.57634926 41.82001877 C-43.57752257 40.36967725 -43.58190754 38.91933437 -43.58968163 37.46901321 C-43.65129774 24.78782623 -42.73274365 15.08050571 -33.66015625 5.5859375 C-23.48528032 -1.13332019 -11.71151028 -0.04222747 0 0 Z M-21.34184265 22.51800537 C-22.84418978 25.32673834 -22.7293872 27.66644123 -22.73583984 30.84179688 C-22.7410968 31.4909053 -22.74635376 32.14001373 -22.75177002 32.80879211 C-22.76496921 34.95350234 -22.75623297 37.09746978 -22.74609375 39.2421875 C-22.74811453 40.73287092 -22.751026 42.22355337 -22.75479126 43.7142334 C-22.75921447 46.83806777 -22.7527839 49.96164476 -22.73876953 53.08544922 C-22.72167733 57.09061927 -22.73151857 61.09518625 -22.74948692 65.10033417 C-22.76032501 68.17841134 -22.75687838 71.25634541 -22.74910355 74.33442688 C-22.74710159 75.81122407 -22.74956067 77.28803424 -22.75654221 78.76481628 C-22.76415748 80.82858719 -22.75255319 82.89138011 -22.73583984 84.95507812 C-22.73345306 86.12961548 -22.73106628 87.30415283 -22.72860718 88.51428223 C-22.53008199 91.32332711 -22.53008199 91.32332711 -21.34085083 93.27787781 C-18.09651444 95.10182045 -14.6920623 94.80546136 -11.06835938 94.77075195 C-10.22417953 94.77440262 -9.37999969 94.77805328 -8.51023865 94.78181458 C-5.71625734 94.78992892 -2.92285439 94.7763027 -0.12890625 94.76171875 C1.81018066 94.76120025 3.7492681 94.76171756 5.68835449 94.76322937 C9.75374186 94.76313961 13.81893108 94.75270182 17.88427734 94.73461914 C23.1000068 94.71193188 28.31544664 94.71138745 33.53121185 94.71813679 C37.53573183 94.72147545 41.54018557 94.71484861 45.54469299 94.70500755 C47.46805983 94.70115349 49.39143403 94.70000819 51.31480408 94.7015934 C54.00102828 94.70196353 56.68687872 94.68935861 59.37304688 94.6730957 C60.17106216 94.67557312 60.96907745 94.67805054 61.79127502 94.68060303 C65.60888819 94.6436444 67.398732 94.567512 70.65234375 92.3984375 C71.73651435 89.1459257 71.78575241 86.76066332 71.79760742 83.33813477 C71.80398727 82.08996475 71.81036713 80.84179474 71.81694031 79.55580139 C71.81846897 78.19214924 71.81958294 76.82849657 71.8203125 75.46484375 C71.82352608 74.06623805 71.82689023 72.6676327 71.83039856 71.26902771 C71.83638541 68.33779114 71.8382389 65.40658405 71.83764648 62.4753418 C71.83754484 58.72150541 71.851201 54.96785808 71.86841869 51.21406651 C71.87954301 48.32556797 71.88156557 45.4371151 71.88103676 42.54859734 C71.88221607 41.16472662 71.88663514 39.78085469 71.89436913 38.39700508 C71.90417788 36.4607398 71.90002442 34.52441904 71.89526367 32.58813477 C71.89668869 31.48687759 71.89811371 30.38562042 71.89958191 29.25099182 C71.65304247 26.40649916 71.21881044 24.76354741 69.65234375 22.3984375 C66.45859511 20.80156318 62.99491389 21.24219713 59.48657227 21.23730469 C58.22052155 21.22985733 58.22052155 21.22985733 56.92889404 21.22225952 C54.12967115 21.2076236 51.3305049 21.20083407 48.53125 21.1953125 C46.59073382 21.18956291 44.65021767 21.18380515 42.70970154 21.17803955 C38.63841486 21.16752596 34.56714796 21.16168541 30.49584961 21.15820312 C25.27221515 21.15271291 20.04884064 21.12867514 14.82528782 21.10023117 C10.81649505 21.08163408 6.8077653 21.07640079 2.79893303 21.07486725 C0.8727571 21.07183434 -1.05341756 21.06378444 -2.97955132 21.05068207 C-5.67073402 21.03368011 -8.36127603 21.03548718 -11.05249023 21.04199219 C-12.25186974 21.02817001 -12.25186974 21.02817001 -13.47547913 21.0140686 C-16.4066695 21.03633101 -18.75006287 21.0629391 -21.34184265 22.51800537 Z " fill="#00179C" transform="translate(319.34765625,294.6015625)"/>
</svg>
