<svg width="16" height="16" viewBox="0 0 16 16" fill="none" xmlns="http://www.w3.org/2000/svg">
<path d="M11.1994 2.6665V3.73317M4.79944 2.6665V3.73317" stroke="currentColor" stroke-linecap="round" stroke-linejoin="round"/>
<path d="M7.99812 8.5332H8.00292M7.99812 10.6665H8.00292M10.1291 8.5332H10.1339M5.86719 8.5332H5.87197M5.86719 10.6665H5.87197" stroke="currentColor" stroke-width="1.33333" stroke-linecap="round" stroke-linejoin="round"/>
<path d="M2.93359 8.12941C2.93359 5.80554 2.93359 4.64359 3.60139 3.92165C4.26919 3.19971 5.34399 3.19971 7.49359 3.19971H8.50693C10.6565 3.19971 11.7314 3.19971 12.3991 3.92165C13.0669 4.64359 13.0669 5.80554 13.0669 8.12941V8.40333C13.0669 10.7272 13.0669 11.8891 12.3991 12.6111C11.7314 13.333 10.6565 13.333 8.50693 13.333H7.49359C5.34399 13.333 4.26919 13.333 3.60139 12.6111C2.93359 11.8891 2.93359 10.7272 2.93359 8.40333V8.12941Z" stroke="currentColor" stroke-linecap="round" stroke-linejoin="round"/>
<path d="M2.974 5.87489H13.025C12.962 4.9562 12.8024 4.35841 12.3984 3.92165C11.7306 3.19971 10.6558 3.19971 8.50617 3.19971H7.49284C5.34323 3.19971 4.26843 3.19971 3.60063 3.92165C3.19663 4.35841 3.03704 4.9562 2.974 5.87489Z" fill="currentColor" stroke="currentColor" stroke-linecap="round" stroke-linejoin="round"/>
</svg>
