<?xml version="1.0" encoding="UTF-8"?>
<svg version="1.1" xmlns="http://www.w3.org/2000/svg" width="512" height="512">
<path d="M0 0 C1.7477 -0.00967334 1.7477 -0.00967334 3.53070706 -0.0195421 C5.43676519 -0.01489629 5.43676519 -0.01489629 7.38132954 -0.01015663 C8.75222931 -0.01389483 10.12312696 -0.01849703 11.49402124 -0.02388728 C15.25597698 -0.03611199 19.01784376 -0.03585743 22.77981484 -0.03349853 C26.83927632 -0.03309022 30.89870934 -0.04413092 34.95815754 -0.05361366 C42.90999657 -0.07022236 50.86180595 -0.07572317 58.81366088 -0.07683842 C65.27891256 -0.07778907 71.74415446 -0.08190024 78.20940304 -0.08823967 C96.54563378 -0.10585269 114.88184111 -0.11507859 133.21808036 -0.11357872 C134.20646751 -0.11349881 135.19485466 -0.1134189 136.21319294 -0.11333656 C137.69758738 -0.11321392 137.69758738 -0.11321392 139.21196959 -0.1130888 C155.2444162 -0.11227616 171.27676879 -0.13140813 187.30918821 -0.1596133 C203.77710869 -0.1883556 220.24498335 -0.20215281 236.71292955 -0.20042574 C245.95598464 -0.19976225 255.19894121 -0.20523668 264.44197369 -0.22678185 C272.3130127 -0.24501148 280.18390855 -0.24932645 288.05495956 -0.235763 C292.06851735 -0.22924197 296.08180063 -0.22908455 300.09533215 -0.2464695 C303.77509352 -0.26224425 307.45436375 -0.25929229 311.13411347 -0.24190123 C313.08418576 -0.23739965 315.03427356 -0.2524542 316.98428601 -0.26838052 C330.43927509 -0.16334197 341.08278251 4.39900847 350.84185505 13.63226891 C359.6378246 22.91690343 363.21124855 33.9672847 363.22328281 46.61972046 C363.22533545 47.3549483 363.22738808 48.09017614 363.22950292 48.84768361 C363.23517089 51.31875236 363.23371591 53.78976535 363.23229694 56.26083946 C363.2348807 58.04747913 363.23789389 59.83411822 363.24130034 61.62075651 C363.24937244 66.53650894 363.25116004 71.45224677 363.25189781 76.36800504 C363.25374801 81.66743121 363.2612952 86.9668498 363.26803303 92.26627159 C363.28161855 103.85725249 363.28764146 115.44822993 363.29204369 127.03921747 C363.29480584 134.27625318 363.29904315 141.51328754 363.30354786 148.75032234 C363.315741 168.78611797 363.3260401 188.82191253 363.32942295 208.85771179 C363.32964252 210.14021229 363.32986208 211.42271278 363.3300883 212.74407693 C363.33030658 214.0296538 363.33052486 215.31523068 363.33074975 216.63976443 C363.33119322 219.24485056 363.33163978 221.84993668 363.33208942 224.45502281 C363.33231085 225.7472367 363.33253228 227.03945059 363.33276042 228.37082247 C363.33670823 249.30816866 363.35416152 270.24548003 363.37744895 291.18281277 C363.40116281 312.67699143 363.41362482 334.17115263 363.41479087 355.6653446 C363.41570763 367.73426037 363.42146018 379.80313079 363.43961048 391.87203407 C363.45501194 402.14937576 363.46013165 412.42665809 363.45187238 422.70400913 C363.44796601 427.94684122 363.44889491 433.18955376 363.46292973 438.43237114 C363.47566923 443.23528139 363.47447059 448.03798228 363.46233901 452.84089224 C363.46038211 454.57511476 363.46346013 456.3093521 363.47218338 458.04355378 C363.55025121 474.61772377 361.12708199 487.57277793 349.5098238 499.92914391 C339.04499244 510.00513662 327.43702183 512.8653388 313.21456623 512.7719326 C311.84077155 512.7772681 310.46698272 512.78433952 309.09320486 512.79297966 C305.34630424 512.81150151 301.59980168 512.80533853 297.85288525 512.79482663 C293.80095131 512.78780462 289.74909669 512.80385527 285.69718647 512.81682396 C277.77005678 512.83841965 269.84307089 512.83834839 261.91592146 512.83019841 C255.4698662 512.82388755 249.02385273 512.8250454 242.57779789 512.83147049 C241.65884638 512.83237214 240.73989488 512.8332738 239.79309636 512.83420278 C237.92598673 512.83605406 236.05887711 512.83791663 234.1917675 512.83979034 C216.69933796 512.85635358 199.20698917 512.84766239 181.71456449 512.83080476 C165.72902222 512.81611145 149.74366799 512.83073361 133.75814994 512.85957492 C117.32394808 512.88900377 100.8898329 512.89993089 84.45560586 512.89039272 C82.5949185 512.88937022 80.73423113 512.88837561 78.87354374 512.88740921 C77.95816914 512.88693282 77.04279455 512.88645643 76.09968133 512.8859656 C69.66654404 512.88380595 63.23348923 512.89358167 56.80037022 512.90818024 C48.95289298 512.9257407 41.10565529 512.9255332 33.25818731 512.90282858 C29.25847737 512.89171958 25.2591889 512.88844727 21.25949764 512.90712929 C17.59020603 512.92404676 13.92169979 512.9174332 10.25245802 512.8929125 C8.31305405 512.88578838 6.37360639 512.90296576 4.43427622 512.92132384 C-9.26723673 512.77697226 -19.73006661 507.99587107 -29.58001995 498.67523766 C-36.2036723 491.65894612 -41.04669639 482.0152274 -41.02167034 472.30512047 C-41.02159481 471.32440575 -41.02151928 470.34369102 -41.02144146 469.33325768 C-41.01628017 468.28208763 -41.01111889 467.23091759 -41.0058012 466.14789391 C-41.00438625 465.06594749 -41.00297131 463.98400108 -41.00151348 462.86926842 C-40.99591813 459.4152404 -40.98336646 455.96127732 -40.97064495 452.50726891 C-40.96562935 450.16482193 -40.96106655 447.82237393 -40.95697308 445.47992516 C-40.94595023 439.7390176 -40.92921669 433.99814789 -40.90814495 428.25726891 C-41.8685368 428.29654503 -41.8685368 428.29654503 -42.8483305 428.33661461 C-45.76384997 428.44088172 -48.67897693 428.50568643 -51.59564495 428.56976891 C-52.60304729 428.61166344 -53.61044964 428.65355797 -54.64837933 428.69672203 C-62.16809539 428.82080975 -62.16809539 428.82080975 -66.0526762 425.86273766 C-68.78566687 422.02504339 -69.36403323 419.99850699 -68.90814495 415.25726891 C-65.75025021 409.67832154 -65.75025021 409.67832154 -62.90814495 408.25726891 C-55.64814495 408.25726891 -48.38814495 408.25726891 -40.90814495 408.25726891 C-40.90814495 388.12726891 -40.90814495 367.99726891 -40.90814495 347.25726891 C-48.16814495 347.25726891 -55.42814495 347.25726891 -62.90814495 347.25726891 C-68.77993982 341.38547403 -68.77993982 341.38547403 -69.22064495 337.50726891 C-68.83035468 333.44825006 -67.41227117 331.42425207 -64.90814495 328.25726891 C-57.74651882 324.67645584 -48.91508638 327.25726891 -40.90814495 327.25726891 C-40.90814495 307.12726891 -40.90814495 286.99726891 -40.90814495 266.25726891 C-48.16814495 266.25726891 -55.42814495 266.25726891 -62.90814495 266.25726891 C-68.77993982 260.38547403 -68.77993982 260.38547403 -69.22064495 256.50726891 C-68.83035468 252.44825006 -67.41227117 250.42425207 -64.90814495 247.25726891 C-57.74651882 243.67645584 -48.91508638 246.25726891 -40.90814495 246.25726891 C-40.90814495 226.12726891 -40.90814495 205.99726891 -40.90814495 185.25726891 C-48.16814495 185.25726891 -55.42814495 185.25726891 -62.90814495 185.25726891 C-68.77993982 179.38547403 -68.77993982 179.38547403 -69.22064495 175.50726891 C-68.83035468 171.44825006 -67.41227117 169.42425207 -64.90814495 166.25726891 C-57.74651882 162.67645584 -48.91508638 165.25726891 -40.90814495 165.25726891 C-40.90814495 145.12726891 -40.90814495 124.99726891 -40.90814495 104.25726891 C-48.16814495 104.25726891 -55.42814495 104.25726891 -62.90814495 104.25726891 C-68.77993982 98.38547403 -68.77993982 98.38547403 -69.22064495 94.50726891 C-68.83035468 90.44825006 -67.41227117 88.42425207 -64.90814495 85.25726891 C-62.16923902 83.88781594 -59.95122085 84.09968161 -56.88543987 84.06439781 C-55.62040127 84.04833488 -54.35536266 84.03227196 -53.05198956 84.01572227 C-51.66420443 84.00423534 -50.2764118 83.99362671 -48.8886137 83.98383141 C-48.19060461 83.97850773 -47.49259552 83.97318405 -46.77343464 83.96769905 C-43.07835901 83.94097326 -39.3833171 83.92159722 -35.68817425 83.90717125 C-32.63155462 83.89383315 -29.5756028 83.86598423 -26.51922894 83.82514 C-22.82749013 83.77580506 -19.13635694 83.75104944 -15.44430256 83.74394417 C-14.03886907 83.73723428 -12.63344895 83.72201861 -11.22820377 83.69805336 C-9.25871837 83.66638381 -7.28876871 83.66936807 -5.31903362 83.67377281 C-4.19921597 83.66568596 -3.07939831 83.65759911 -1.92564678 83.6492672 C2.06720114 84.45379309 3.549431 86.14869131 6.09185505 89.25726891 C7.47557576 93.23546595 7.18451532 94.97928808 5.84185505 99.00726891 C4.09185505 102.25726891 4.09185505 102.25726891 1.09185505 104.25726891 C-6.16814495 104.25726891 -13.42814495 104.25726891 -20.90814495 104.25726891 C-20.90814495 124.38726891 -20.90814495 144.51726891 -20.90814495 165.25726891 C-13.64814495 165.25726891 -6.38814495 165.25726891 1.09185505 165.25726891 C7.09185505 171.25726891 7.09185505 171.25726891 7.09185505 176.25726891 C5.64190075 180.60713181 4.9430083 182.68983341 1.09185505 185.25726891 C-6.16814495 185.25726891 -13.42814495 185.25726891 -20.90814495 185.25726891 C-20.90814495 205.38726891 -20.90814495 225.51726891 -20.90814495 246.25726891 C-13.64814495 246.25726891 -6.38814495 246.25726891 1.09185505 246.25726891 C7.09185505 252.25726891 7.09185505 252.25726891 7.09185505 257.25726891 C5.64190075 261.60713181 4.9430083 263.68983341 1.09185505 266.25726891 C-6.16814495 266.25726891 -13.42814495 266.25726891 -20.90814495 266.25726891 C-20.90814495 286.38726891 -20.90814495 306.51726891 -20.90814495 327.25726891 C-13.64814495 327.25726891 -6.38814495 327.25726891 1.09185505 327.25726891 C7.09185505 333.25726891 7.09185505 333.25726891 7.09185505 338.25726891 C5.64190075 342.60713181 4.9430083 344.68983341 1.09185505 347.25726891 C-6.16814495 347.25726891 -13.42814495 347.25726891 -20.90814495 347.25726891 C-20.90814495 367.38726891 -20.90814495 387.51726891 -20.90814495 408.25726891 C-13.64814495 408.25726891 -6.38814495 408.25726891 1.09185505 408.25726891 C7.09185505 414.25726891 7.09185505 414.25726891 7.09185505 419.25726891 C5.64190075 423.60713181 4.9430083 425.68983341 1.09185505 428.25726891 C-1.26825237 428.48431969 -1.26825237 428.48431969 -4.0136137 428.45258141 C-4.99652386 428.44613609 -5.97943401 428.43969078 -6.99212933 428.43305016 C-8.01628948 428.41629234 -9.04044964 428.39953453 -10.09564495 428.38226891 C-11.13140667 428.37324547 -12.16716839 428.36422203 -13.23431683 428.35492516 C-15.7924918 428.33134751 -18.35020243 428.29843921 -20.90814495 428.25726891 C-20.86367015 434.03784278 -20.79350373 439.81735761 -20.70062542 445.5973568 C-20.6725878 447.55918461 -20.65128864 449.52112178 -20.63714886 451.48309898 C-20.96577638 469.84054623 -20.96577638 469.84054623 -12.22064495 485.25726891 C-4.68412436 491.71253279 4.83711497 491.69164909 14.25529194 491.64494896 C16.21634832 491.65302727 16.21634832 491.65302727 18.217022 491.66126877 C21.82595767 491.67566996 25.43466394 491.67149549 29.04361188 491.66410196 C32.94349847 491.65935935 36.8433362 491.67188974 40.74320698 491.68211937 C48.37547638 491.69929105 56.0076634 491.70015082 63.63994711 491.69490647 C69.84484229 491.69086067 76.04971317 491.69231318 82.2546072 491.69765472 C83.13861616 491.69840315 84.02262512 491.69915157 84.93342223 491.69992267 C86.72943111 491.70145419 88.52543999 491.70299253 90.32144887 491.70453764 C107.15326919 491.71825665 123.98504298 491.71282909 140.81686223 491.70135242 C156.20638015 491.69141954 171.59577785 491.70436273 186.98527723 491.72828662 C202.79901649 491.75268424 218.61269977 491.76228393 234.42645746 491.75563389 C243.29998939 491.75214329 252.17342886 491.75436328 261.04694653 491.77188492 C268.60028231 491.78661514 276.15346052 491.78723158 283.70679324 491.76981401 C287.55822513 491.76130856 291.40937561 491.75914311 295.26079273 491.77446556 C299.44123417 491.79089073 303.62099826 491.77614999 307.80143452 491.75847435 C309.01127048 491.76807936 310.22110644 491.77768436 311.4676041 491.78758043 C320.01379688 491.71329226 327.24495635 490.43514175 333.96685505 484.88226891 C339.58161878 477.9463843 341.21485405 473.87493036 341.22328281 465.04071999 C341.22533545 464.30912395 341.22738808 463.57752791 341.22950292 462.8237623 C341.23518162 460.35905583 341.23371459 457.89440509 341.23229694 455.42969322 C341.23488008 453.65002813 341.23789309 451.87036362 341.24130034 450.09069991 C341.24937963 445.18969943 341.25116043 440.28871359 341.25189781 435.38770723 C341.25374674 430.10604426 341.26129325 424.82438891 341.26803303 419.54273033 C341.28162328 407.98908054 341.2876421 396.43543422 341.29204369 384.88177776 C341.29480484 377.67006481 341.29904194 370.4583532 341.30354786 363.24664116 C341.31574123 343.28636954 341.32604054 323.32609901 341.32942295 303.36582375 C341.32964252 302.08796867 341.32986208 300.81011358 341.3300883 299.49353562 C341.33030658 298.21259417 341.33052486 296.93165271 341.33074975 295.61189485 C341.33119322 293.01614714 341.33163978 290.42039943 341.33208942 287.82465172 C341.33231085 286.53706663 341.33253228 285.24948153 341.33276042 283.92287871 C341.3367093 263.05457401 341.35416577 242.1863042 341.37744895 221.31801298 C341.40115088 199.90185131 341.41362427 178.48570716 341.41479087 157.06953216 C341.41570826 145.04149777 341.42147674 133.01350886 341.43961048 120.98548698 C341.4549958 110.74426704 341.46014118 100.50310663 341.45187238 90.26187733 C341.44796038 85.0356259 341.44892235 79.80949441 341.46292973 74.58325768 C341.47563547 69.79896834 341.4745004 65.01488947 341.46233901 60.23060057 C341.46037625 58.49976625 341.46348712 56.76891719 341.47218338 55.03810361 C341.48326149 52.68420813 341.47579769 50.33105735 341.46379185 47.97718239 C341.46438894 46.67007498 341.46498602 45.36296757 341.46560121 44.01625085 C340.8290492 37.61407796 338.76334792 31.80582776 334.09185505 27.25726891 C327.95110013 23.25784734 322.98669214 21.13534064 315.62724495 21.12584114 C314.51014446 21.122 313.39304397 21.11815885 312.24209195 21.11420131 C310.40112244 21.11550103 310.40112244 21.11550103 308.52296162 21.11682701 C307.21915725 21.11385589 305.91535289 21.11088477 304.57203931 21.10782361 C300.94994466 21.09975462 297.32786984 21.09796409 293.70576727 21.09722614 C289.80037474 21.0953754 285.89499249 21.08782792 281.9896059 21.08109093 C273.44818998 21.06750748 264.90677875 21.06148278 256.36535382 21.05708027 C251.03175173 21.05431769 245.69815146 21.05008029 240.36455059 21.0455761 C225.59676223 21.03338308 210.82897531 21.02308405 196.06118202 21.019701 C195.11595096 21.01948144 194.17071991 21.01926187 193.19684548 21.01903565 C192.24935366 21.01881737 191.30186184 21.0185991 190.32565814 21.0183742 C188.40568276 21.01793074 186.48570738 21.01748418 184.565732 21.01703453 C183.13717111 21.01670239 183.13717111 21.01670239 181.67975041 21.01636353 C166.25046431 21.01241615 150.82122546 20.99496411 135.39195762 20.97167501 C119.5501418 20.94795628 103.70834968 20.9354989 87.86651582 20.93433309 C78.97227098 20.93341658 70.0780877 20.92767057 61.18385983 20.90951347 C53.60954441 20.89410541 46.03530957 20.88899616 38.46098147 20.89725158 C34.59759462 20.90115567 30.73436999 20.90024033 26.87100315 20.88619423 C22.67910744 20.87109332 18.48757651 20.87932896 14.29566669 20.88977623 C13.07950729 20.88171983 11.86334789 20.87366342 10.61033517 20.86536288 C0.57610201 20.92387252 -6.84216453 22.43166613 -14.2479887 29.42523766 C-19.5571124 35.28401181 -19.93024304 41.70394834 -20.15814495 49.25726891 C-20.64538329 56.88534456 -20.64538329 56.88534456 -23.34564495 59.56976891 C-26.74147641 61.80604816 -28.26563897 62.43925441 -32.28314495 62.13226891 C-33.05400433 62.08844078 -33.8248637 62.04461266 -34.61908245 61.99945641 C-38.11403095 60.86628198 -39.09423819 59.44682308 -40.90814495 56.25726891 C-41.51375537 52.91209992 -41.52570258 49.64978144 -41.47064495 46.25726891 C-41.45529705 44.85202965 -41.45529705 44.85202965 -41.43963909 43.41840172 C-41.04462622 30.4333326 -36.26906135 20.86180902 -27.2558012 11.55023766 C-20.00796273 4.81401132 -9.93776043 0.01395429 0 0 Z " fill="#00179C" transform="translate(108.9081449508667,-0.25726890563964844)"/>
<path d="M0 0 C2.51931377 2.23812339 4.96666924 4.53475993 7.40234375 6.86328125 C8.34400391 7.69279297 8.34400391 7.69279297 9.3046875 8.5390625 C21.10556906 19.32308805 28.28697164 36.67825337 29.62353516 52.47802734 C30.58309822 75.33196116 26.17591127 95.83784581 10.734375 113.41015625 C-2.04012579 126.84798957 -19.07590512 137.70135773 -38.11450195 139.0402832 C-56.24443258 139.4581156 -70.65442722 138.03070122 -86.8046875 129.3515625 C-89.56239586 127.78222539 -89.56239586 127.78222539 -92.59765625 126.86328125 C-118.22200804 139.85591033 -136.06867373 167.35196985 -145.3515625 193.67578125 C-149.53344626 206.75595902 -151.29920801 219.07259184 -153.59765625 232.86328125 C-83.96765625 232.86328125 -14.33765625 232.86328125 57.40234375 232.86328125 C52.02081267 199.22871198 43.95024181 166.90812199 18.19921875 142.80078125 C15.75767861 140.16816405 15.57209106 138.29956828 15.30078125 134.82421875 C15.5034471 130.91120894 17.54230528 128.75403538 20.15234375 126.05078125 C23.40405939 124.33459799 25.77694537 124.48166037 29.40234375 124.86328125 C34.67401985 126.97195169 37.88136692 131.59253482 41.40234375 135.86328125 C42.00949219 136.56066406 42.61664063 137.25804687 43.2421875 137.9765625 C65.14000115 163.9046486 79.92239011 201.66538903 78.78515625 235.8203125 C78.03876276 241.75337913 75.91041835 245.72430767 71.52734375 249.73828125 C65.59053864 253.77530872 60.29188507 254.15641519 53.34463501 254.13070679 C51.99171437 254.13750346 51.99171437 254.13750346 50.611462 254.14443743 C47.5946007 254.15707958 44.57791998 254.15546118 41.56103516 254.15380859 C39.39581572 254.15979391 37.23059841 254.16659946 35.06538391 254.17416382 C29.18727893 254.19182958 23.30923219 254.19651942 17.43110323 254.19779539 C13.75818431 254.19921709 10.0852802 254.20348704 6.41236496 254.20878983 C-6.40250844 254.22729123 -19.21734024 254.2354602 -32.03222656 254.23388672 C-43.97581885 254.23268493 -55.91923053 254.25379436 -67.86277711 254.28537405 C-78.11942246 254.31152665 -88.37600878 254.32225445 -98.63268721 254.3209759 C-104.7574922 254.32046602 -110.88213665 254.32616408 -117.00690842 254.347332 C-122.76731861 254.36669737 -128.5274148 254.36685026 -134.28783607 254.35229874 C-136.40016069 254.35020752 -138.51250486 254.35493008 -140.62479591 254.36701965 C-143.51222587 254.38247346 -146.3985733 254.37316284 -149.28598022 254.35775757 C-150.11848435 254.36804469 -150.95098847 254.37833182 -151.80871999 254.38893068 C-158.40319489 254.31137474 -163.5578681 252.43360404 -168.62109375 248.15234375 C-174.46738293 240.95431141 -175.19343154 234.60728568 -174.39453125 225.56396484 C-170.7148832 195.22630323 -160.75252492 165.98937717 -141.59765625 141.86328125 C-141.18789551 141.34668945 -140.77813477 140.83009766 -140.35595703 140.29785156 C-131.43047953 129.14514145 -121.59652236 119.72370981 -109.59765625 111.86328125 C-111.08420052 107.75432043 -113.12573083 104.26788647 -115.41015625 100.55078125 C-125.96779034 82.71963056 -128.21575331 61.5518309 -123.62890625 41.484375 C-117.69262494 20.63993268 -104.44448455 3.48135874 -85.52001953 -7.13916016 C-58.48730532 -21.16705833 -24.00586374 -19.74617664 0 0 Z M-89.59765625 22.86328125 C-90.16097656 23.4046875 -90.72429687 23.94609375 -91.3046875 24.50390625 C-101.48090483 35.1365766 -104.98315821 49.17087022 -104.89648438 63.42407227 C-104.51504062 78.40396049 -98.6374035 91.66713556 -88.234375 102.51171875 C-76.57732055 112.90808435 -62.11038585 119.36225952 -46.265625 119.0703125 C-28.97061478 117.72823996 -15.17439524 110.37891622 -3.60546875 97.67578125 C4.79816454 87.57699446 10.36708713 73.40120443 9.68359375 60.1015625 C7.47979974 42.56303516 1.38700419 28.31328241 -12.28515625 16.61328125 C-36.63286545 -1.89097774 -68.44483485 1.44462547 -89.59765625 22.86328125 Z " fill="#00179C" transform="translate(317.59765625,137.13671875)"/>
</svg>
