<svg width="24" height="24" viewBox="0 0 24 24" fill="none" xmlns="http://www.w3.org/2000/svg">
<path d="M2.55469 7.03644C2.20801 6.80544 2 6.41677 2 6.00046V5.99942C2 5.26345 2.59668 4.66681 3.3327 4.66681H20.6673C21.4033 4.66681 22 5.26345 22 5.99942V6.00009V6.00046C22 6.41677 21.792 6.80544 21.4454 7.03644C19.7537 8.16445 14.6563 11.5624 12.7397 12.8404C12.2917 13.1391 11.7083 13.1391 11.2604 12.8404C9.34368 11.5624 4.24636 8.16445 2.55469 7.03644Z" stroke="#00179C" stroke-width="1.5" stroke-miterlimit="10" stroke-linecap="round" stroke-linejoin="round"/>
<path d="M2 5.9987V17.9987C2 18.3524 2.14033 18.6914 2.39067 18.9414C2.64067 19.1917 2.97967 19.332 3.33332 19.332H20.6667C21.0203 19.332 21.3593 19.1917 21.6093 18.9414C21.8597 18.6914 22 18.3524 22 17.9987V5.9987" stroke="#00179C" stroke-width="1.5" stroke-miterlimit="10" stroke-linecap="round" stroke-linejoin="round"/>
</svg>
