<svg width="24" height="24" viewBox="0 0 24 24" fill="none" xmlns="http://www.w3.org/2000/svg">
<path d="M11.9939 13.1968C10.6063 13.1968 9.47461 12.106 9.47461 10.7191C9.47461 9.34309 10.6063 8.19922 11.9939 8.19922C13.3824 8.19922 14.525 9.34309 14.525 10.7191C14.525 12.106 13.3824 13.1968 11.9939 13.1968" stroke="#00179C" stroke-width="1.5"/>
<path d="M11.9937 3C7.8091 3 4.34961 6.3461 4.34961 10.486C4.34961 12.5721 5.10739 14.5089 6.35706 16.1504C7.72289 17.9612 9.42087 19.5388 11.343 20.7772C11.8231 21.085 12.2179 21.0634 12.6553 20.7772C14.5666 19.5388 16.2645 17.9612 17.6422 16.1504C18.8909 14.5089 19.6496 12.5721 19.6496 10.486C19.6496 6.3461 16.1901 3 11.9937 3" stroke="#00179C" stroke-width="1.5"/>
</svg>
